<svg width="20" height="20" viewBox="0 0 20 20" fill="none" xmlns="http://www.w3.org/2000/svg">
<path d="M17.0858 1.78C16.94 1.695 13.4858 -0.26918 9.6125 1.7625C7.22832 3.01418 5.04832 2.35082 4.16668 1.9775V0.83332C4.16668 0.37332 3.79418 0 3.33332 0C2.8725 0 2.5 0.37332 2.5 0.83332V2.5V10.8492V19.1667C2.5 19.6275 2.8725 20 3.33332 20C3.79414 20 4.16664 19.6275 4.16664 19.1667V12.0958C4.82414 12.3075 5.69664 12.5041 6.71332 12.5033C7.815 12.5033 9.07832 12.2741 10.3875 11.5875C13.4183 9.99418 16.1292 11.5008 16.25 11.5708C16.5058 11.7183 16.8233 11.72 17.0817 11.5716C17.3409 11.4225 17.5 11.1475 17.5 10.8491V2.5C17.5 2.20418 17.3425 1.92918 17.0858 1.78Z" fill="#52BFFF"/>
</svg>
