<svg width="20" height="20" viewBox="0 0 20 20" fill="none" xmlns="http://www.w3.org/2000/svg">
<path d="M3.05944 2.36023C3.0589 2.36023 3.0583 2.36023 3.05776 2.36023C2.8686 2.36023 2.69069 2.43397 2.55634 2.56797C2.42052 2.70346 2.3457 2.88387 2.3457 3.07592V13.8076C2.3457 14.2011 2.66712 14.5221 3.06227 14.5231C4.72814 14.5271 7.51913 14.8743 9.44452 16.8892V5.65815C9.44452 5.52475 9.41045 5.39943 9.34614 5.29573C7.76586 2.7508 4.72908 2.36414 3.05944 2.36023Z" fill="#52BFFF"/>
<path d="M17.6544 13.8076V3.07586C17.6544 2.88381 17.5796 2.7034 17.4438 2.56791C17.3094 2.43391 17.1314 2.36017 16.9424 2.36017C16.9418 2.36017 16.9412 2.36017 16.9407 2.36017C15.2711 2.36414 12.2343 2.75081 10.654 5.29573C10.5897 5.39944 10.5557 5.52476 10.5557 5.65816V16.8891C12.4811 14.8742 15.272 14.527 16.9379 14.523C17.333 14.522 17.6544 14.2011 17.6544 13.8076Z" fill="#52BFFF"/>
<path d="M19.2846 4.83514H18.7657V13.8076C18.7657 14.8124 17.9471 15.6317 16.9407 15.6342C15.5277 15.6376 13.1979 15.9139 11.5479 17.4756C14.4016 16.7769 17.41 17.2311 19.1244 17.6218C19.3385 17.6705 19.5597 17.6202 19.7312 17.4835C19.9022 17.3471 20.0002 17.1433 20.0002 16.9245V5.5507C20.0003 5.15616 19.6792 4.83514 19.2846 4.83514Z" fill="#52BFFF"/>
<path d="M1.23448 13.8076V4.83514H0.715558C0.321079 4.83514 0 5.15616 0 5.5507V16.9243C0 17.1431 0.0980475 17.3469 0.268957 17.4833C0.440338 17.6199 0.661349 17.6705 0.87576 17.6216C2.59024 17.2308 5.59867 16.7767 8.45228 17.4754C6.80231 15.9138 4.47247 15.6375 3.05947 15.6342C2.05321 15.6317 1.23448 14.8124 1.23448 13.8076Z" fill="#52BFFF"/>
</svg>
