<svg width="16" height="16" viewBox="0 0 16 16" fill="none" xmlns="http://www.w3.org/2000/svg">
<path d="M0.438127 6.78721C0.155462 6.02369 -0.0492262 5.24393 0.0125052 4.41543C0.0514935 3.90533 0.243186 3.46996 0.616823 3.11257C1.02295 2.72918 1.40634 2.32631 1.80596 1.93642C2.32581 1.42308 2.97886 1.42633 3.49871 1.93642C3.82036 2.25158 4.13876 2.57323 4.45717 2.89488C4.76582 3.20354 5.07773 3.5122 5.38639 3.8241C5.92897 4.37319 5.93222 5.01325 5.38964 5.55908C4.99975 5.94896 4.61312 6.3421 4.21674 6.72548C4.11277 6.8262 4.10302 6.91068 4.15826 7.03739C4.41818 7.6612 4.79506 8.21678 5.21744 8.73662C6.06868 9.78281 7.03039 10.712 8.1773 11.4301C8.42422 11.5828 8.69389 11.6965 8.95056 11.8362C9.08377 11.9077 9.1715 11.8849 9.27871 11.7745C9.66535 11.3748 10.0617 10.9817 10.4581 10.5886C10.978 10.0752 11.6278 10.072 12.1476 10.5886C12.7844 11.2189 13.418 11.8524 14.0483 12.4892C14.5779 13.0221 14.5746 13.6751 14.0418 14.2112C13.6811 14.5751 13.301 14.9195 12.9631 15.2996C12.4693 15.852 11.8454 16.0339 11.1372 15.9949C10.104 15.9397 9.152 15.5953 8.23253 15.1502C6.19214 14.1592 4.45067 12.7849 2.99186 11.0499C1.91318 9.76332 1.02295 8.36624 0.438127 6.78721ZM15.2439 7.95036C15.662 7.95036 16.0047 7.61037 15.9653 7.19415C15.6067 3.41333 12.5876 0.394283 8.8068 0.0356945C8.39057 -0.00378193 8.05058 0.338937 8.05058 0.757028C8.05058 1.17512 8.39104 1.50937 8.80627 1.55819C11.7518 1.90449 14.0965 4.24918 14.4428 7.19468C14.4916 7.60991 14.8258 7.95036 15.2439 7.95036ZM11.5693 7.1987C11.6556 7.60778 11.9862 7.95036 12.4043 7.95036C12.8224 7.95036 13.1672 7.60945 13.1057 7.1959C12.7763 4.98137 11.0196 3.22469 8.80504 2.89527C8.3915 2.83375 8.05058 3.17858 8.05058 3.59667C8.05058 4.01476 8.39316 4.34535 8.80225 4.43167C9.4768 4.574 10.0961 4.9079 10.5946 5.40638C11.093 5.90486 11.4269 6.52415 11.5693 7.1987Z" fill="white"/>
</svg>
