<svg width="14" height="14" viewBox="0 0 14 14" fill="none" xmlns="http://www.w3.org/2000/svg">
<path fill-rule="evenodd" clip-rule="evenodd" d="M14 7C14 3.13401 10.866 0 7 0C3.13401 0 0 3.13401 0 7C0 10.866 3.13401 14 7 14C10.866 14 14 10.866 14 7ZM6 2.28L6.59583 7.8833C6.63118 8.21576 6.91166 8.468 7.246 8.468C7.58034 8.468 7.86082 8.21576 7.89617 7.8833L8.492 2.28C8.492 2.12536 8.36664 2 8.212 2H6.28C6.12536 2 6 2.12536 6 2.28ZM7.232 9.56C6.61344 9.56 6.112 10.0614 6.112 10.68C6.112 11.2986 6.61344 11.8 7.232 11.8H7.26C7.87856 11.8 8.38 11.2986 8.38 10.68C8.38 10.0614 7.87856 9.56 7.26 9.56H7.232Z" fill="#FE0002"/>
</svg>
