<svg width="14" height="10" viewBox="0 0 14 10" fill="none" xmlns="http://www.w3.org/2000/svg">
<path fill-rule="evenodd" clip-rule="evenodd" d="M13.7117 8.44709C13.9999 7.32945 13.9999 5.01168 13.9999 5.01168C13.9999 5.01168 14.0116 2.68241 13.7117 1.56477C13.5502 0.95302 13.0774 0.470494 12.4777 0.305873C11.3822 0 7.00006 0 7.00006 0C7.00006 0 2.61791 0 1.52237 0.294189C0.934173 0.45881 0.449736 0.95302 0.288371 1.56477C0 2.68241 0 5 0 5C0 5 0 7.32945 0.288371 8.43523C0.449907 9.04698 0.92272 9.52951 1.52237 9.69413C2.62936 10 7.00006 10 7.00006 10C7.00006 10 11.3822 10 12.4777 9.70581C13.0774 9.54119 13.5502 9.05884 13.7117 8.44709ZM9.24874 5L5.60469 7.14111V2.85889L9.24874 5Z" fill="#52BFFF"/>
</svg>
